<svg width="24" height="24" viewBox="0 0 24 24" fill="none" xmlns="http://www.w3.org/2000/svg">
<path d="M3.00019 13H4.00019V15V20C4.00019 21.103 4.89719 22 6.00019 22H18.0002C19.1032 22 20.0002 21.103 20.0002 20V15V13H21.0002C21.4042 13 21.7702 12.756 21.9242 12.383C22.0792 12.009 21.9932 11.579 21.7072 11.293L12.7072 2.29301C12.3162 1.90201 11.6842 1.90201 11.2932 2.29301L2.29319 11.293C2.00719 11.579 1.92119 12.009 2.07619 12.383C2.23119 12.756 2.59619 13 3.00019 13ZM12.0002 4.41401L18.0002 10.414V15L18.0012 20H6.00019V15V12V10.415L12.0002 4.41401Z" fill="#9E9EA7"/>
<path d="M12 17C14.206 17 16 15.206 16 13C16 10.794 14.206 9 12 9C9.794 9 8 10.794 8 13C8 15.206 9.794 17 12 17ZM12 11C13.103 11 14 11.897 14 13C14 14.103 13.103 15 12 15C10.897 15 10 14.103 10 13C10 11.897 10.897 11 12 11Z" fill="#9E9EA7"/>
</svg>
