<svg width="24" height="24" viewBox="0 0 24 24" fill="none" xmlns="http://www.w3.org/2000/svg">
<path d="M21.7427 12.331L12.7427 2.33103C12.3637 1.90903 11.6357 1.90903 11.2567 2.33103L2.25668 12.331C1.99268 12.624 1.92568 13.046 2.08668 13.407C2.24768 13.768 2.60468 14 2.99968 14H4.99968V21C4.99968 21.552 5.44768 22 5.99968 22H17.9997C18.5527 22 18.9997 21.552 18.9997 21V14H20.9997C21.3947 14 21.7527 13.768 21.9127 13.407C22.0737 13.046 22.0077 12.625 21.7427 12.331ZM11.9997 16C10.3437 16 8.99968 14.657 8.99968 13C8.99968 11.343 10.3437 10 11.9997 10C13.6567 10 14.9997 11.343 14.9997 13C14.9997 14.657 13.6567 16 11.9997 16Z" fill="#FFBC0D"/>
</svg>
