<svg width="104" height="29" viewBox="0 0 104 29" fill="none" xmlns="http://www.w3.org/2000/svg">
<path d="M19 25H22V22V8V5H19H15.272H12.7494H12.272H9.74938H6H3V8V22V25H6H9.74938H12.272H12.7494H15.272H19Z" stroke="#F9A826" stroke-width="6"/>
<rect x="12" y="9" width="1" height="3" fill="white"/>
<rect x="11" y="11" width="1" height="3" transform="rotate(-90 11 11)" fill="white"/>
<path d="M45.7691 7.96V22H42.3491V16.22H37.0291V22H33.6091V7.96H37.0291V13.46H42.3491V7.96H45.7691ZM53.318 22.16C52.2247 22.16 51.238 21.9267 50.358 21.46C49.4914 20.9933 48.8047 20.3267 48.298 19.46C47.8047 18.5933 47.558 17.58 47.558 16.42C47.558 15.2733 47.8114 14.2667 48.318 13.4C48.8247 12.52 49.518 11.8467 50.398 11.38C51.278 10.9133 52.2647 10.68 53.358 10.68C54.4514 10.68 55.438 10.9133 56.318 11.38C57.198 11.8467 57.8914 12.52 58.398 13.4C58.9047 14.2667 59.158 15.2733 59.158 16.42C59.158 17.5667 58.898 18.58 58.378 19.46C57.8714 20.3267 57.1714 20.9933 56.278 21.46C55.398 21.9267 54.4114 22.16 53.318 22.16ZM53.318 19.2C53.9714 19.2 54.5247 18.96 54.978 18.48C55.4447 18 55.678 17.3133 55.678 16.42C55.678 15.5267 55.4514 14.84 54.998 14.36C54.558 13.88 54.0114 13.64 53.358 13.64C52.6914 13.64 52.138 13.88 51.698 14.36C51.258 14.8267 51.038 15.5133 51.038 16.42C51.038 17.3133 51.2514 18 51.678 18.48C52.118 18.96 52.6647 19.2 53.318 19.2ZM64.3924 12.42C64.7258 11.9 65.1858 11.48 65.7724 11.16C66.3591 10.84 67.0458 10.68 67.8324 10.68C68.7524 10.68 69.5858 10.9133 70.3324 11.38C71.0791 11.8467 71.6658 12.5133 72.0924 13.38C72.5324 14.2467 72.7524 15.2533 72.7524 16.4C72.7524 17.5467 72.5324 18.56 72.0924 19.44C71.6658 20.3067 71.0791 20.98 70.3324 21.46C69.5858 21.9267 68.7524 22.16 67.8324 22.16C67.0591 22.16 66.3724 22 65.7724 21.68C65.1858 21.36 64.7258 20.9467 64.3924 20.44V27.32H60.9724V10.84H64.3924V12.42ZM69.2724 16.4C69.2724 15.5467 69.0324 14.88 68.5524 14.4C68.0858 13.9067 67.5058 13.66 66.8124 13.66C66.1324 13.66 65.5524 13.9067 65.0724 14.4C64.6058 14.8933 64.3724 15.5667 64.3724 16.42C64.3724 17.2733 64.6058 17.9467 65.0724 18.44C65.5524 18.9333 66.1324 19.18 66.8124 19.18C67.4924 19.18 68.0724 18.9333 68.5524 18.44C69.0324 17.9333 69.2724 17.2533 69.2724 16.4ZM85.0666 16.24C85.0666 16.56 85.0466 16.8933 85.0066 17.24H77.2666C77.32 17.9333 77.54 18.4667 77.9266 18.84C78.3266 19.2 78.8133 19.38 79.3866 19.38C80.24 19.38 80.8333 19.02 81.1666 18.3H84.8066C84.62 19.0333 84.28 19.6933 83.7866 20.28C83.3066 20.8667 82.7 21.3267 81.9666 21.66C81.2333 21.9933 80.4133 22.16 79.5066 22.16C78.4133 22.16 77.44 21.9267 76.5866 21.46C75.7333 20.9933 75.0666 20.3267 74.5866 19.46C74.1066 18.5933 73.8666 17.58 73.8666 16.42C73.8666 15.26 74.1 14.2467 74.5666 13.38C75.0466 12.5133 75.7133 11.8467 76.5666 11.38C77.42 10.9133 78.4 10.68 79.5066 10.68C80.5866 10.68 81.5466 10.9067 82.3866 11.36C83.2266 11.8133 83.88 12.46 84.3466 13.3C84.8266 14.14 85.0666 15.12 85.0666 16.24ZM81.5666 15.34C81.5666 14.7533 81.3666 14.2867 80.9666 13.94C80.5666 13.5933 80.0666 13.42 79.4666 13.42C78.8933 13.42 78.4066 13.5867 78.0066 13.92C77.62 14.2533 77.38 14.7267 77.2866 15.34H81.5666Z" fill="#0F0F0F"/>
</svg>
