<svg width="192" height="119" viewBox="0 0 192 119" fill="none" xmlns="http://www.w3.org/2000/svg">
<g clip-path="url(#clip0)">
<path d="M19.3798 108.726C20.1769 109.006 21.0327 109.076 21.8648 108.93C22.6969 108.783 23.4772 108.425 24.1306 107.889C25.7945 106.493 26.3163 104.192 26.7407 102.062L27.9962 95.76L25.3676 97.57C23.4772 98.8716 21.5442 100.215 20.2354 102.1C18.9266 103.986 18.3556 106.559 19.4069 108.599" fill="#E6E6E6"/>
<path d="M19.7856 116.794C19.4548 114.384 19.1144 111.942 19.347 109.506C19.5531 107.342 20.2133 105.229 21.5572 103.496C22.2705 102.578 23.1385 101.792 24.1222 101.172C24.3786 101.01 24.6147 101.416 24.3594 101.578C22.6573 102.653 21.3409 104.242 20.5997 106.114C19.7812 108.195 19.6498 110.465 19.7908 112.676C19.876 114.014 20.0571 115.342 20.239 116.669C20.2533 116.729 20.2444 116.792 20.2139 116.846C20.1834 116.9 20.1337 116.94 20.0748 116.958C20.0147 116.974 19.9507 116.966 19.8966 116.935C19.8425 116.905 19.8027 116.854 19.7858 116.794L19.7856 116.794Z" fill="#F2F2F2"/>
<path d="M22.1671 112.927C22.5089 113.446 22.9788 113.869 23.5315 114.155C24.0842 114.44 24.7011 114.578 25.3227 114.556C26.9205 114.48 28.2521 113.365 29.4506 112.307L32.9964 109.176L30.6498 109.064C28.9622 108.983 27.231 108.907 25.6236 109.428C24.0162 109.949 22.5338 111.201 22.2399 112.865" fill="#E6E6E6"/>
<path d="M18.8505 118.18C20.4433 115.362 22.2907 112.229 25.5919 111.228C26.5098 110.951 27.4722 110.851 28.4273 110.935C28.7284 110.961 28.6532 111.425 28.3528 111.4C26.7517 111.267 25.1536 111.689 23.8277 112.597C22.5518 113.465 21.5583 114.673 20.7176 115.953C20.2025 116.737 19.7412 117.555 19.2798 118.371C19.1324 118.632 18.7013 118.444 18.8505 118.18Z" fill="#F2F2F2"/>
<path d="M178.968 112.082C178.504 112.497 177.942 112.785 177.335 112.92C176.728 113.055 176.096 113.031 175.501 112.85C173.975 112.369 172.973 110.95 172.085 109.621L169.457 105.688L171.754 106.179C173.406 106.532 175.099 106.901 176.52 107.816C177.941 108.73 179.054 110.32 178.913 112.003" fill="#E6E6E6"/>
<path d="M180.832 118.008C180.012 114.876 179.027 111.376 176.091 109.564C175.274 109.061 174.369 108.719 173.424 108.556C173.127 108.505 173.081 108.972 173.378 109.024C174.96 109.305 176.397 110.122 177.447 111.338C178.458 112.504 179.11 113.925 179.596 115.378C179.893 116.268 180.13 117.176 180.368 118.083C180.443 118.373 180.908 118.301 180.832 118.008Z" fill="#F2F2F2"/>
<path d="M148.553 72.1459H94.849C94.4202 72.1454 94.009 71.9748 93.7058 71.6715C93.4025 71.3683 93.2319 70.9571 93.2314 70.5283V52.4113C93.2319 51.9824 93.4025 51.5713 93.7058 51.268C94.009 50.9648 94.4202 50.7942 94.849 50.7937H148.553C148.982 50.7942 149.393 50.9648 149.696 51.268C150 51.5713 150.17 51.9824 150.171 52.4113V70.5283C150.17 70.9571 150 71.3683 149.696 71.6715C149.393 71.9748 148.982 72.1454 148.553 72.1459Z" fill="#F1F1F1"/>
<path d="M115.878 55.6462H101.643V57.2638H115.878V55.6462Z" fill="#F9A826"/>
<path d="M134.642 57.5873C135.178 57.5873 135.612 57.1528 135.612 56.6168C135.612 56.0808 135.178 55.6462 134.642 55.6462C134.106 55.6462 133.671 56.0808 133.671 56.6168C133.671 57.1528 134.106 57.5873 134.642 57.5873Z" fill="#F9A826"/>
<path d="M137.877 57.5873C138.413 57.5873 138.847 57.1528 138.847 56.6168C138.847 56.0808 138.413 55.6462 137.877 55.6462C137.341 55.6462 136.906 56.0808 136.906 56.6168C136.906 57.1528 137.341 57.5873 137.877 57.5873Z" fill="#F9A826"/>
<path d="M141.112 57.5873C141.648 57.5873 142.083 57.1528 142.083 56.6168C142.083 56.0808 141.648 55.6462 141.112 55.6462C140.576 55.6462 140.142 56.0808 140.142 56.6168C140.142 57.1528 140.576 57.5873 141.112 57.5873Z" fill="#F9A826"/>
<path d="M148.553 95.1156H94.849C94.4202 95.1151 94.009 94.9445 93.7058 94.6413C93.4025 94.338 93.2319 93.9269 93.2314 93.498V75.381C93.2319 74.9522 93.4025 74.541 93.7058 74.2378C94.009 73.9345 94.4202 73.7639 94.849 73.7634H148.553C148.982 73.7639 149.393 73.9345 149.696 74.2377C150 74.541 150.17 74.9522 150.171 75.381V93.498C150.17 93.9269 150 94.338 149.696 94.6413C149.393 94.9445 148.982 95.1151 148.553 95.1156Z" fill="#F1F1F1"/>
<path d="M115.878 78.6162H101.643V80.2338H115.878V78.6162Z" fill="#F9A826"/>
<path d="M134.642 80.5573C135.178 80.5573 135.612 80.1228 135.612 79.5868C135.612 79.0507 135.178 78.6162 134.642 78.6162C134.106 78.6162 133.671 79.0507 133.671 79.5868C133.671 80.1228 134.106 80.5573 134.642 80.5573Z" fill="#F9A826"/>
<path d="M137.877 80.5573C138.413 80.5573 138.847 80.1228 138.847 79.5868C138.847 79.0507 138.413 78.6162 137.877 78.6162C137.341 78.6162 136.906 79.0507 136.906 79.5868C136.906 80.1228 137.341 80.5573 137.877 80.5573Z" fill="#F9A826"/>
<path d="M141.112 80.5573C141.648 80.5573 142.083 80.1228 142.083 79.5868C142.083 79.0507 141.648 78.6162 141.112 78.6162C140.576 78.6162 140.142 79.0507 140.142 79.5868C140.142 80.1228 140.576 80.5573 141.112 80.5573Z" fill="#F9A826"/>
<path d="M148.553 118.085H94.849C94.4202 118.085 94.009 117.914 93.7058 117.611C93.4025 117.308 93.2319 116.897 93.2314 116.468V98.3507C93.2319 97.9219 93.4025 97.5107 93.7058 97.2075C94.009 96.9042 94.4202 96.7337 94.849 96.7332H148.553C148.982 96.7336 149.393 96.9042 149.696 97.2075C150 97.5107 150.17 97.9219 150.171 98.3507V116.468C150.17 116.897 150 117.308 149.696 117.611C149.393 117.914 148.982 118.085 148.553 118.085Z" fill="#F1F1F1"/>
<path d="M115.878 101.586H101.643V103.204H115.878V101.586Z" fill="#F9A826"/>
<path d="M134.642 103.527C135.178 103.527 135.612 103.093 135.612 102.556C135.612 102.02 135.178 101.586 134.642 101.586C134.106 101.586 133.671 102.02 133.671 102.556C133.671 103.093 134.106 103.527 134.642 103.527Z" fill="#F9A826"/>
<path d="M137.877 103.527C138.413 103.527 138.847 103.093 138.847 102.556C138.847 102.02 138.413 101.586 137.877 101.586C137.341 101.586 136.906 102.02 136.906 102.556C136.906 103.093 137.341 103.527 137.877 103.527Z" fill="#F9A826"/>
<path d="M141.112 103.527C141.648 103.527 142.083 103.093 142.083 102.556C142.083 102.02 141.648 101.586 141.112 101.586C140.576 101.586 140.142 102.02 140.142 102.556C140.142 103.093 140.576 103.527 141.112 103.527Z" fill="#F9A826"/>
<path d="M128.307 33.1025L128.248 33.0587L128.246 33.0576C128.17 33.0007 128.083 32.9594 127.99 32.9362C127.898 32.913 127.801 32.9082 127.707 32.9221C127.613 32.936 127.522 32.9684 127.44 33.0174C127.358 33.0664 127.287 33.1311 127.23 33.2077L115.142 49.4832H113.812V49.1707C113.812 49.0936 113.781 49.0197 113.727 48.9652C113.672 48.9107 113.598 48.8801 113.521 48.8801H112.728C112.651 48.8801 112.577 48.9107 112.522 48.9652C112.468 49.0197 112.437 49.0936 112.437 49.1707V49.4832H111.978V49.1707C111.978 49.0936 111.947 49.0197 111.893 48.9652C111.838 48.9107 111.764 48.8801 111.687 48.8801H110.894C110.817 48.8801 110.743 48.9107 110.688 48.9652C110.634 49.0197 110.603 49.0936 110.603 49.1707V49.4832H110.145V49.1707C110.145 49.0936 110.115 49.0197 110.06 48.9652C110.006 48.9107 109.932 48.8801 109.855 48.8801H109.061C108.984 48.8801 108.91 48.9107 108.856 48.9652C108.801 49.0197 108.771 49.0936 108.771 49.1707V49.4832H108.311V49.1707C108.311 49.0936 108.281 49.0197 108.226 48.9652C108.172 48.9107 108.098 48.8801 108.021 48.8801H107.227C107.15 48.8801 107.076 48.9107 107.022 48.9652C106.967 49.0197 106.937 49.0936 106.937 49.1707V49.4832H106.479V49.1707C106.479 49.0936 106.448 49.0197 106.394 48.9652C106.339 48.9107 106.265 48.8801 106.188 48.8801H105.395C105.357 48.8801 105.319 48.8876 105.283 48.9022C105.248 48.9168 105.216 48.9382 105.189 48.9652C105.162 48.9922 105.141 49.0242 105.126 49.0595C105.112 49.0948 105.104 49.1325 105.104 49.1707V49.4832H104.645V49.1707C104.645 49.0936 104.614 49.0197 104.56 48.9652C104.505 48.9107 104.431 48.8801 104.354 48.8801H103.561C103.484 48.8801 103.41 48.9107 103.355 48.9652C103.301 49.0197 103.27 49.0936 103.27 49.1707V49.4832H102.811V49.1707C102.811 49.0936 102.78 49.0197 102.726 48.9652C102.671 48.9107 102.597 48.8801 102.52 48.8801H101.727C101.65 48.8801 101.576 48.9107 101.521 48.9652C101.467 49.0197 101.436 49.0936 101.436 49.1707V49.4832H100.978V49.1707C100.978 49.0936 100.948 49.0197 100.893 48.9652C100.839 48.9107 100.765 48.8801 100.688 48.8801H99.8942C99.8171 48.8801 99.7432 48.9107 99.6887 48.9652C99.6342 49.0197 99.6036 49.0936 99.6036 49.1707V49.4832H99.1443V49.1707C99.1443 49.0936 99.1137 49.0197 99.0592 48.9652C99.0047 48.9107 98.9308 48.8801 98.8537 48.8801H98.0602C97.9831 48.8801 97.9092 48.9107 97.8547 48.9652C97.8002 49.0197 97.7696 49.0936 97.7696 49.1707V49.4832H97.3118V49.1707C97.3118 49.0936 97.2812 49.0197 97.2267 48.9652C97.1722 48.9107 97.0983 48.8801 97.0212 48.8801H96.2277C96.1506 48.8801 96.0767 48.9107 96.0222 48.9652C95.9677 49.0197 95.9371 49.0936 95.9371 49.1707V49.4832H95.3616C95.2662 49.4832 95.1717 49.502 95.0835 49.5385C94.9954 49.575 94.9153 49.6285 94.8478 49.696C94.7803 49.7635 94.7268 49.8436 94.6903 49.9317C94.6538 50.0199 94.635 50.1144 94.635 50.2098V50.903C94.635 50.9984 94.6538 51.0929 94.6903 51.181C94.7268 51.2692 94.7803 51.3493 94.8478 51.4168C94.9153 51.4842 94.9954 51.5378 95.0835 51.5743C95.1717 51.6108 95.2662 51.6296 95.3616 51.6296H115.021C115.27 51.6296 115.511 51.5437 115.705 51.3865C115.898 51.2293 116.031 51.0104 116.081 50.7666L116.089 50.7722L128.456 34.1205L128.457 34.1191C128.572 33.9644 128.621 33.7704 128.593 33.5797C128.565 33.3891 128.462 33.2174 128.307 33.1025Z" fill="#3F3D56"/>
<path d="M51.912 111.914L54.3539 113.163L60.336 104.339L56.7321 102.495L51.912 111.914Z" fill="#FFB7B7"/>
<path d="M51.697 110.798L56.5061 113.259L56.5064 113.259C57.3191 113.675 57.9333 114.397 58.2139 115.265C58.4945 116.134 58.4185 117.079 58.0026 117.892L57.9516 117.991L50.0777 113.962L51.697 110.798Z" fill="#2F2E41"/>
<path d="M80.1152 115.332H82.8585L84.1635 104.752H80.1148L80.1152 115.332Z" fill="#FFB7B7"/>
<path d="M79.4155 114.437L84.8177 114.437H84.8179C85.731 114.437 86.6066 114.799 87.2522 115.445C87.8979 116.091 88.2606 116.966 88.2607 117.879V117.991L79.4156 117.991L79.4155 114.437Z" fill="#2F2E41"/>
<path d="M67.2838 29.0281C67.2838 29.0281 65.4469 27.6208 65.4469 31.0584L65.1569 42.4185L68.3957 53.1501L70.281 49.6696L69.5075 42.1285L67.2838 29.0281Z" fill="#2F2E41"/>
<path d="M86.9338 60.0997C86.9338 60.0997 89.0639 70.4734 86.3658 78.9868L84.8747 111.72L79.4074 111.294L77.4903 87.0102L75.6442 74.9395L71.81 85.9452L59.1713 109.234L53.3489 104.69C53.3489 104.69 59.801 87.0853 64.5676 83.389L66.9581 56.1614L86.9338 60.0997Z" fill="#2F2E41"/>
<path d="M85.9231 11.9149C87.5745 8.89389 86.4642 5.10616 83.4432 3.45475C80.4223 1.80333 76.6345 2.91359 74.9831 5.93457C73.3317 8.95555 74.4419 12.7433 77.4629 14.3947C80.4839 16.0461 84.2716 14.9359 85.9231 11.9149Z" fill="#FFB7B7"/>
<path d="M80.012 10.2469C80.7593 10.3441 81.323 9.57949 81.5844 8.87271C81.8459 8.16593 82.0451 7.34309 82.6948 6.9613C83.5825 6.4397 84.7182 7.06705 85.7332 6.89495C86.8796 6.70061 87.6249 5.48572 87.6833 4.3245C87.7417 3.16328 87.2796 2.04642 86.8262 0.975787L86.6679 2.30635C86.6891 1.85539 86.5942 1.40654 86.3923 1.00273C86.1904 0.598931 85.8883 0.253677 85.5148 0L85.7189 1.95239C85.6755 1.68303 85.5793 1.42489 85.4358 1.1928C85.2924 0.960703 85.1046 0.759218 84.8831 0.599907C84.6616 0.440596 84.4108 0.326593 84.1451 0.264444C83.8795 0.202295 83.6041 0.193221 83.335 0.237745L83.3671 1.40105C82.0431 1.24361 80.7075 1.08595 79.3796 1.2059C78.0516 1.32584 76.7144 1.74599 75.7079 2.62054C74.2024 3.92873 73.6526 6.08281 73.8372 8.06872C74.0218 10.0546 74.8416 11.9203 75.696 13.7225C75.9109 14.1759 76.2083 14.6876 76.7067 14.7453C77.1546 14.7972 77.5644 14.4228 77.7037 13.994C77.811 13.554 77.8068 13.0942 77.6916 12.6561C77.5656 11.9868 77.4068 11.3026 77.5253 10.6318C77.6437 9.96107 78.1262 9.29824 78.8024 9.21604C79.4785 9.13384 80.1704 9.90671 79.8453 10.5053L80.012 10.2469Z" fill="#2F2E41"/>
<path d="M87.3196 62.8738L66.5106 61.5313L68.0769 55.0425L87.0957 59.2939L87.3196 62.8738Z" fill="#CBCBCB"/>
<path d="M74.4866 17.4263L75.7918 15.6143C75.7918 15.6143 77.2507 16.11 81.1576 18.0548L81.4336 19.7525L88.2154 61.4646L75.8885 60.9329L72.5317 60.8614L71.4331 58.399L70.0785 60.8093L66.8005 60.7395L63.465 58.8059L66.7521 48.751L67.8156 39.5663L66.172 30.9134C66.172 30.9134 64.1038 22.9675 72.0696 18.6832L74.4866 17.4263Z" fill="#2F2E41"/>
<path d="M102.27 49.0029C101.969 49.0796 101.654 49.0892 101.348 49.0309C101.042 48.9727 100.752 48.8481 100.499 48.6659C100.247 48.4837 100.037 48.2484 99.8854 47.9764C99.7336 47.7044 99.6433 47.4025 99.6208 47.0918L92.3075 45.133L95.2495 42.5208L101.743 44.7814C102.268 44.7782 102.775 44.9675 103.169 45.3134C103.563 45.6592 103.817 46.1377 103.882 46.658C103.947 47.1784 103.819 47.7045 103.522 48.1366C103.225 48.5688 102.78 48.877 102.27 49.0029V49.0029Z" fill="#FFB7B7"/>
<path d="M98.995 47.8968C98.8412 47.9806 98.6715 48.031 98.4969 48.0448C98.3223 48.0587 98.1468 48.0356 97.9818 47.9772L85.9511 43.4111C83.0161 42.3707 80.559 40.2996 79.0367 37.5831L74.0197 28.6335C73.6674 28.2402 73.3961 27.7814 73.2214 27.2832C73.0466 26.785 72.9718 26.2572 73.0013 25.73C73.0307 25.2029 73.1638 24.6867 73.393 24.2111C73.6221 23.7354 73.9428 23.3096 74.3367 22.9581C74.7306 22.6065 75.19 22.336 75.6885 22.1622C76.187 21.9883 76.7149 21.9145 77.242 21.9449C77.7691 21.9753 78.285 22.1093 78.7603 22.3393C79.2355 22.5693 79.6607 22.8908 80.0116 23.2853L88.6952 37.0487L99.6233 43.4557C99.8375 43.5962 100.003 43.7992 100.098 44.037C100.194 44.2749 100.213 44.5362 100.155 44.7857L99.6117 47.0885C99.5533 47.3355 99.421 47.5587 99.2325 47.7286C99.1602 47.7938 99.0805 47.8503 98.995 47.8968Z" fill="#2F2E41"/>
<path d="M191.797 118.451H0.203175C0.149289 118.451 0.0976109 118.429 0.0595083 118.391C0.0214057 118.353 0 118.301 0 118.248C0 118.194 0.0214057 118.142 0.0595083 118.104C0.0976109 118.066 0.149289 118.044 0.203175 118.044H191.797C191.851 118.044 191.902 118.066 191.941 118.104C191.979 118.142 192 118.194 192 118.248C192 118.301 191.979 118.353 191.941 118.391C191.902 118.429 191.851 118.451 191.797 118.451Z" fill="#CBCBCB"/>
</g>
<defs>
<clipPath id="clip0">
<rect width="192" height="118.496" fill="white"/>
</clipPath>
</defs>
</svg>
